<?xml version="1.0" encoding="utf-8" ?><svg xmlns="http://www.w3.org/2000/svg" xmlns:xlink="http://www.w3.org/1999/xlink" width="1024" height="1024" viewBox="0 0 1024 1024"><path fill="white" d="M0 0L1024 0L1024 1024L0 1024L0 0Z"/><path fill="#B41D21" d="M355.685 228.689C389.622 225.433 421.764 244.283 435.047 275.587C442.495 293.14 441.798 309.359 441.789 327.958C451.568 327.728 461.35 327.716 471.129 327.922C464.874 333.034 462.116 335.673 456.924 342.003L390.572 342.019C383.756 342.027 376.688 341.946 369.896 342.031C357.459 342.187 348.297 341.674 339.068 332.393C332.535 325.916 328.906 317.069 329.008 307.87C329.175 278.302 366.053 264.365 386.407 285.113C398.29 297.226 396.356 312.296 396.171 327.893L404.802 327.743C404.827 309.391 406.416 293.995 393.015 279.494C385.353 271.253 374.724 266.403 363.478 266.018C340.531 265.301 320.644 284.3 320.77 307.642C320.158 326.087 333.032 345.124 351.417 349.399C363.005 352.093 380.689 351.053 393.093 351.034L450.918 351.045C448.213 356.354 446.811 359.882 444.897 365.516L391.948 365.509C379.005 365.513 359.646 366.423 347.632 363.265C338.782 360.877 330.693 356.257 324.138 349.849C300.979 327.395 300.321 291.151 322.936 268.026C333.11 257.686 346.97 251.803 361.475 251.667C376.721 251.422 391.413 257.379 402.184 268.172C420.703 286.712 418.945 303.961 419.02 327.798L427.573 327.75C427.434 302.775 428.271 281.799 408.914 262.073C396.683 249.794 380.031 242.945 362.7 243.066C345.198 243.189 328.45 250.205 316.086 262.594C303.957 274.79 297.878 291.386 297.931 308.467C298.16 325.995 305.197 342.746 317.554 355.179C340.603 378.032 364.945 374.532 394.575 374.52L442.636 374.479C441.658 384.268 441.836 388.415 443.248 398.195L393.824 398.175C384.258 398.174 371.135 397.814 361.778 398.551C343.121 399.874 325.767 408.598 313.577 422.783C302.27 436.214 296.769 453.59 298.284 471.081C299.857 489.528 308.311 504.894 322.3 516.78C333.244 525.896 347.007 530.941 361.25 531.056C386.844 531.154 407.737 518.459 419.923 495.95C429.104 478.991 427.593 463.146 427.547 444.605L418.988 444.633C419.101 467.948 420.651 486.27 403.26 504.942C393.212 515.738 379.249 522.044 364.507 522.445C349.508 522.852 334.966 517.264 324.1 506.918C291.543 475.695 307.026 421.651 348.958 409.144C359.953 405.864 381.176 406.959 393.234 406.962L445.527 406.864C447.209 411.951 449.489 416.626 452.082 421.295L394.08 421.358C383.417 421.348 363.592 420.531 353.994 422.986C346.533 424.92 339.723 428.81 334.267 434.255C325.872 442.598 321.141 453.938 321.119 465.773C321.014 476.649 325.115 487.619 332.789 495.399C340.637 503.374 351.342 507.888 362.531 507.94C373.58 508.022 384.213 503.728 392.106 495.996C406.63 481.516 404.785 463.394 404.712 444.616L396.113 444.548C396.091 460.748 398.728 476.571 386.888 489.137C380.789 495.642 372.32 499.406 363.405 499.576C354.628 499.817 346.119 496.535 339.778 490.46C333.184 484.125 329.143 475.858 329.026 466.65C328.847 457.214 332.511 448.11 339.176 441.428C346.7 433.79 355.215 430.457 365.832 430.462C374.756 430.467 383.712 430.417 392.635 430.414L458.502 430.426C462.705 435.735 468.632 440.717 474.192 444.512L441.743 444.632C441.792 466.114 443.101 482.682 432.849 502.427C423.101 521.297 406.241 535.509 385.994 541.925C366.226 548.244 344.748 546.344 326.396 536.653C307.511 526.701 293.345 509.662 287.009 489.276C280.758 468.495 283.06 446.079 293.404 427.002C304.383 406.394 322.522 393.273 344.578 386.684C334.234 383.765 323.601 378.734 315.103 372.103C297.746 358.733 286.569 338.881 284.139 317.106C278.892 271.653 310.577 233.722 355.685 228.689Z"/><path fill="white" d="M363.736 444.689C369.818 444.71 375.9 444.669 381.982 444.567C381.92 460.649 385.706 483.341 363.019 484.711C353.449 484.313 346.188 479.082 344.368 469.356C343.299 463.821 344.601 458.091 347.956 453.561C352.082 448.025 357.133 445.609 363.736 444.689Z"/><path fill="white" d="M360.01 289.614C360.776 289.563 361.543 289.533 362.311 289.524C384.168 289.413 382.032 313.189 381.958 327.863C376.715 327.946 371.143 327.776 365.875 327.705C338.856 327.628 335.585 295.109 360.01 289.614Z"/><path fill="#B41D21" d="M656.836 228.684C670.786 226.496 689.638 231.197 701.909 237.886C720.868 248.089 734.957 265.451 741.038 286.104C747.059 306.443 744.618 328.352 734.268 346.867C723.108 366.898 705.124 380.329 683.188 386.471C696.281 390.137 708.266 396.981 718.077 406.394C734.239 421.97 743.57 443.315 744.028 465.756C744.251 486.291 736.232 506.058 721.765 520.634C705.817 536.806 686.178 545.001 663.423 545.046C642.902 545.055 623.24 536.805 608.869 522.154C584.533 497.801 585.428 475.94 585.379 444.618C574.728 444.664 562.624 444.222 552.179 444.846C559.196 439.419 561.706 437.259 567.562 430.419C595.432 430.723 623.392 430.165 651.269 430.42C657.823 430.48 664.677 430.127 671.101 431.539C677.034 432.895 682.482 435.851 686.853 440.085C693.67 446.589 697.584 455.561 697.715 464.982C697.985 494.84 662.588 510.58 641.246 489.472C628.78 477.143 631.48 460.816 631.463 444.671L622.665 444.695C622.462 463.189 620.454 480.527 634.354 495.054C641.889 503.002 652.286 507.611 663.236 507.856C674.579 508.057 685.543 503.772 693.744 495.932C701.609 488.356 706.307 477.154 706.497 466.255C706.625 454.576 702.053 443.336 693.808 435.063C676.689 417.751 655.106 421.345 632.687 421.351L574.076 421.274C576.952 416.268 578.659 412.299 580.721 406.938L632.749 406.95C658.672 406.941 681.826 403.504 702.149 422.968C713.446 433.679 720.042 448.427 720.493 463.988C720.92 479.215 715.236 493.98 704.708 504.989C694.298 515.895 679.896 522.094 664.819 522.159C649.834 522.336 636.127 517.006 625.48 506.533C606.401 487.767 608.455 468.957 608.146 444.632L599.52 444.613C599.298 463.457 598.76 480.568 608.044 497.52C616.189 512.488 629.982 523.577 646.35 528.316C664.112 533.33 681.534 530.504 697.473 521.561C702.137 518.753 706.465 515.421 710.372 511.628C736.962 485.559 735.131 443.691 709.306 417.951C700.605 409.422 689.754 403.411 677.909 400.558C665.075 397.381 644.871 398.21 631.227 398.227L582.78 398.199C584.512 388.686 584.382 384.095 583.147 374.479L635.953 374.507C649.02 374.509 667.616 375.524 679.797 372.479C707.849 365.465 729.5 339.561 729.888 310.275C730.223 292.422 723.28 275.201 710.657 262.571C698.504 250.154 681.916 243.075 664.542 242.89C647.49 242.788 631.104 249.5 619.025 261.536C598.797 281.796 599.522 302.145 599.568 327.93L608.229 327.916C608.104 304.206 606.983 286.697 624.745 268.398C646.614 245.868 682.102 246.085 704.211 268.023C714.953 278.638 721.042 293.084 721.139 308.186C721.137 323.885 715.575 337.686 704.424 348.771C697.057 356.054 687.872 361.228 677.825 363.754C668.266 366.168 647.366 365.503 636.476 365.506L581.351 365.495C579.577 359.829 578.139 356.202 575.341 350.983L635.198 351.024C645.624 351.028 656.434 351.37 666.788 350.783C689.209 349.511 706.464 331.145 706.993 308.853C707.534 286.058 687.953 266.163 665.4 265.969C654.069 265.901 643.177 270.343 635.124 278.314C621.037 292.45 622.398 309.763 622.505 327.871C625.457 327.896 628.52 327.824 631.482 327.79C631.484 312.331 629.2 297.049 640.77 285.25C647.235 278.639 654.966 275.284 664.221 275.067C694.772 274.35 708.972 310.888 688.701 332.381C685.452 335.826 678.512 340.29 673.746 341.021C662.792 342.7 650.771 341.983 639.577 341.998L569.393 342.064C564.871 336.312 560.442 332.117 554.655 327.738C564.932 327.874 575.209 327.925 585.487 327.894C584.937 302.21 584.973 281.482 601.355 259.884C615.469 241.277 633.901 231.713 656.836 228.684Z"/><path fill="white" d="M645.564 444.61C655.902 444.602 668.057 443.119 676.022 450.005C680.162 453.581 682.708 458.658 683.098 464.115C683.527 470.187 681.499 474.872 677.581 479.347C673.994 482.752 669.232 484.642 664.286 484.625C654.672 484.512 647.175 476.784 646.146 467.647C645.309 460.222 645.56 452.094 645.564 444.61Z"/><path fill="white" d="M661.915 289.559C666.157 289.262 668.805 289.373 672.787 291.226C677.623 293.502 681.299 297.679 682.941 302.765C684.589 307.799 684.053 313.292 681.465 317.913C678.319 323.472 673.78 325.822 667.949 327.486C660.931 327.885 652.674 327.842 645.556 327.982C645.387 312.241 642.976 294.756 661.915 289.559Z"/><path fill="#B41D21" d="M365.922 633.22C401.607 630.249 432.928 656.81 435.825 692.502C438.723 728.194 412.097 759.459 376.399 762.283C340.806 765.098 309.652 738.567 306.763 702.98C303.874 667.392 330.34 636.183 365.922 633.22Z"/><path fill="white" d="M366.635 650.774C392.583 648.19 415.727 667.093 418.377 693.033C421.027 718.974 402.183 742.166 376.249 744.882C350.222 747.608 326.928 728.682 324.268 702.647C321.608 676.613 340.594 653.367 366.635 650.774Z"/><path fill="#B41D21" d="M508.709 324.747C541.866 322.458 570.617 347.445 572.974 380.597C575.331 413.75 550.403 442.552 517.256 444.977C484.011 447.409 455.107 422.393 452.743 389.144C450.38 355.895 475.455 327.042 508.709 324.747Z"/><path fill="#B41D21" d="M645.375 633.184C660.4 630.328 681.814 637.921 692.731 648.634C709.317 664.912 713.25 681.043 713.691 703.532L606.276 703.457C609.211 715.467 610.985 723.745 619.832 732.668C628.284 741.332 639.896 746.185 652 746.111C665.606 746.045 675.5 740.773 684.92 731.38C687.479 728.699 689.88 725.402 692.152 722.434L712.021 721.984C709.341 727.241 707.109 731.489 703.556 736.245C693.256 750.252 677.793 759.571 660.596 762.135C644.709 764.546 628.523 760.433 615.715 750.73C574.345 719.794 584.543 647.971 636.291 634.833C639.369 634.052 642.23 633.607 645.375 633.184Z"/><path fill="white" d="M646.792 650.17C654.896 649.044 666.104 651.494 673.135 655.623C685.987 663.171 691.609 672.633 695.487 686.504L656.75 686.496C640.282 686.537 623.813 686.422 607.347 686.153C614.587 665.558 624.504 653.447 646.792 650.17Z"/><path fill="#B41D21" d="M537.345 575.896C538.693 577.239 538.184 625.961 538.242 633.02L571.378 632.976L567.258 649.485L538.026 649.48C538.302 663.293 538.409 677.109 538.348 690.925C538.315 699.649 537.77 709.853 538.983 718.428C541.483 736.104 557.81 742.651 573.503 744.732C573.747 749.359 574.687 759.059 573.298 763.495C573.07 764.222 572.709 764.124 571.849 764.407C558.155 761.626 543.841 756.167 533.638 746.304C518.287 731.465 520.983 708.047 520.998 688.492L520.872 649.496L500.05 649.51C501.248 644.082 503.174 638.756 504.385 633.07L520.999 632.681L521.039 595.125C525.863 588.924 531.932 581.522 537.345 575.896Z"/><path fill="#B41D21" d="M807.089 633.668C810.892 633.13 818.265 633.382 822.323 633.445C820.765 639.515 820.04 645.349 819.394 651.54C816.311 651.582 813.508 651.658 810.433 651.977C795.52 653.382 781.817 660.784 772.466 672.487C752.476 697.33 755.687 733.561 758.953 763.463C751.288 763.375 743.623 763.331 735.958 763.331C737.514 757.546 738.317 753.831 738.648 747.877C739.807 732.663 738.717 709.059 738.629 693.056C738.545 677.808 740.019 647.467 736.617 634.058C745.204 634.367 753.794 634.561 762.386 634.642C758.138 646.597 757.817 651.491 757.471 663.913C772.547 646.403 783.747 637.187 807.089 633.668Z"/><path fill="#B41D21" d="M290.252 633.212L296.799 633.166C295.581 639.841 294.887 645.142 294.492 651.897C291.848 651.854 289.096 651.804 286.459 651.93C272.241 652.578 258.881 658.913 249.382 669.512C227.189 694.139 232.353 725.373 233.27 755.716C233.348 758.304 233.51 760.901 233.631 763.488C226.359 763.38 219.086 763.376 211.814 763.477C213.081 755.488 213.85 747.428 214.115 739.344C215.104 724.543 214.373 706.099 214.478 691.125C214.613 671.874 215.154 652.786 212.608 633.715C220.63 634.114 229.304 634.172 237.388 634.399C234.219 646.196 233.76 651.692 232.787 663.717C248.337 642.845 264.487 634.616 290.252 633.212Z"/><path fill="#B41D21" d="M475.481 571.977C477.864 574.622 474.762 738.49 477.434 755.724C477.62 756.919 478.014 761.787 478.173 763.361L460.375 763.447C459.562 763.443 459.226 763.346 458.423 763.212C457.603 761.029 458.489 734.416 458.49 729.456L458.465 591.881L475.481 571.977Z"/></svg>