<svg xmlns="http://www.w3.org/2000/svg" width="63" height="63" viewBox="0 0 63 63"><rect x="28.40" y="0.40" width="6.2" height="6.2" rx="1" fill="#ff4017"></rect><rect x="21.40" y="7.40" width="6.2" height="6.2" rx="1" fill="#ff4017"></rect><rect x="28.40" y="7.40" width="6.2" height="6.2" rx="1" fill="#b41d21"></rect><rect x="35.40" y="7.40" width="6.2" height="6.2" rx="1" fill="#ff4017"></rect><rect x="14.40" y="14.40" width="6.2" height="6.2" rx="1" fill="#ff4017"></rect><rect x="21.40" y="14.40" width="6.2" height="6.2" rx="1" fill="#b41d21"></rect><rect x="35.40" y="14.40" width="6.2" height="6.2" rx="1" fill="#b41d21"></rect><rect x="42.40" y="14.40" width="6.2" height="6.2" rx="1" fill="#ff4017"></rect><rect x="7.40" y="21.40" width="6.2" height="6.2" rx="1" fill="#ff4017"></rect><rect x="14.40" y="21.40" width="6.2" height="6.2" rx="1" fill="#b41d21"></rect><rect x="42.40" y="21.40" width="6.2" height="6.2" rx="1" fill="#b41d21"></rect><rect x="49.40" y="21.40" width="6.2" height="6.2" rx="1" fill="#ff4017"></rect><rect x="0.40" y="28.40" width="6.2" height="6.2" rx="1" fill="#ff4017"></rect><rect x="7.40" y="28.40" width="6.2" height="6.2" rx="1" fill="#b41d21"></rect><rect x="28.40" y="28.40" width="6.2" height="6.2" rx="1" fill="#ff4017"></rect><rect x="49.40" y="28.40" width="6.2" height="6.2" rx="1" fill="#b41d21"></rect><rect x="56.40" y="28.40" width="6.2" height="6.2" rx="1" fill="#ff4017"></rect><rect x="7.40" y="35.40" width="6.2" height="6.2" rx="1" fill="#ff4017"></rect><rect x="14.40" y="35.40" width="6.2" height="6.2" rx="1" fill="#b41d21"></rect><rect x="42.40" y="35.40" width="6.2" height="6.2" rx="1" fill="#b41d21"></rect><rect x="49.40" y="35.40" width="6.2" height="6.2" rx="1" fill="#ff4017"></rect><rect x="14.40" y="42.40" width="6.2" height="6.2" rx="1" fill="#ff4017"></rect><rect x="21.40" y="42.40" width="6.2" height="6.2" rx="1" fill="#b41d21"></rect><rect x="35.40" y="42.40" width="6.2" height="6.2" rx="1" fill="#b41d21"></rect><rect x="42.40" y="42.40" width="6.2" height="6.2" rx="1" fill="#ff4017"></rect><rect x="21.40" y="49.40" width="6.2" height="6.2" rx="1" fill="#ff4017"></rect><rect x="28.40" y="49.40" width="6.2" height="6.2" rx="1" fill="#b41d21"></rect><rect x="35.40" y="49.40" width="6.2" height="6.2" rx="1" fill="#ff4017"></rect><rect x="28.40" y="56.40" width="6.2" height="6.2" rx="1" fill="#ff4017"></rect></svg>
